<svg xmlns="http://www.w3.org/2000/svg" viewBox="0 0 64 64">
  <style>
    :root { --gold: #e3c27d; }
    @media (prefers-color-scheme: light) { :root { --gold: #a07b32; } }
  </style>
  <circle cx="32" cy="32" r="30.5" fill="#0a0b0c"/>
  <circle cx="32" cy="32" r="29" fill="none" stroke="var(--gold)" stroke-width="3"/>
  <path transform="translate(9.429,43.500) scale(0.015906,-0.015906)" d="M161 0V1446H659Q801 1446 902.0 1419.0Q1003 1392 1067.5 1342.0Q1132 1292 1162.0 1221.0Q1192 1150 1192 1061Q1192 1010 1177.0 963.5Q1162 917 1130.5 876.5Q1099 836 1050.5 803.0Q1002 770 935 747Q1233 680 1233 425Q1233 333 1198.0 255.0Q1163 177 1096.0 120.5Q1029 64 931.0 32.0Q833 0 707 0ZM430 634V210H702Q777 210 828.0 228.0Q879 246 909.5 276.0Q940 306 953.5 346.0Q967 386 967 431Q967 478 952.0 515.5Q937 553 905.0 579.5Q873 606 822.5 620.0Q772 634 701 634ZM430 820H644Q782 820 852.5 870.0Q923 920 923 1029Q923 1142 859.0 1190.0Q795 1238 659 1238H430Z" fill="var(--gold)"/>
  <path transform="translate(30.378,43.500) scale(0.015906,-0.015906)" d="M1445 723Q1445 564 1392.0 431.0Q1339 298 1243.0 202.0Q1147 106 1012.0 53.0Q877 0 712 0H161V1446H712Q877 1446 1012.0 1392.5Q1147 1339 1243.0 1243.5Q1339 1148 1392.0 1015.0Q1445 882 1445 723ZM1169 723Q1169 842 1137.5 936.5Q1106 1031 1046.5 1096.5Q987 1162 902.5 1197.0Q818 1232 712 1232H431V214H712Q818 214 902.5 249.0Q987 284 1046.5 349.5Q1106 415 1137.5 509.5Q1169 604 1169 723Z" fill="var(--gold)"/>
</svg>
